<?xml version="1.0" standalone="no"?>
<!DOCTYPE svg PUBLIC "-//W3C//DTD SVG 20010904//EN"
 "http://www.w3.org/TR/2001/REC-SVG-20010904/DTD/svg10.dtd">
<svg version="1.0" xmlns="http://www.w3.org/2000/svg"
 width="128.000000pt" height="128.000000pt" viewBox="0 0 128.000000 128.000000"
 preserveAspectRatio="xMidYMid meet">

<g transform="translate(0.000000,128.000000) scale(0.100000,-0.100000)"
fill="#000000" stroke="none">
<path d="M235 1266 c-95 -30 -162 -88 -204 -176 l-26 -55 0 -395 0 -395 26
-55 c33 -70 89 -126 159 -159 l55 -26 395 0 395 0 55 26 c70 33 126 89 159
159 l26 55 0 395 0 395 -26 55 c-33 70 -89 126 -159 159 l-55 26 -380 2 c-287
2 -390 -1 -420 -11z m838 -128 c22 -14 51 -43 65 -65 l27 -38 0 -395 0 -395
-27 -38 c-14 -22 -43 -51 -65 -65 l-38 -27 -395 0 -395 0 -38 27 c-22 14 -51
43 -65 65 l-27 38 -3 383 c-3 420 -3 419 59 481 61 62 57 61 479 58 l385 -2
38 -27z"/>
<path d="M952 1055 c-74 -32 -46 -145 36 -145 35 0 71 29 73 58 5 77 -42 115
-109 87z"/>
<path d="M543 942 c-109 -39 -178 -112 -210 -221 -41 -144 35 -304 176 -370
115 -54 264 -27 356 64 91 92 118 241 64 356 -69 146 -241 223 -386 171z m210
-124 c22 -14 51 -43 65 -65 23 -33 27 -48 27 -113 0 -65 -4 -80 -27 -113 -14
-22 -43 -51 -65 -65 -33 -23 -48 -27 -113 -27 -65 0 -80 4 -113 27 -61 41 -91
93 -95 164 -6 92 36 165 120 208 51 26 152 18 201 -16z"/>
</g>
</svg>
