<?xml version="1.0" standalone="no"?>
<!DOCTYPE svg PUBLIC "-//W3C//DTD SVG 20010904//EN"
 "http://www.w3.org/TR/2001/REC-SVG-20010904/DTD/svg10.dtd">
<svg version="1.0" xmlns="http://www.w3.org/2000/svg"
 width="128.000000pt" height="128.000000pt" viewBox="0 0 128.000000 128.000000"
 preserveAspectRatio="xMidYMid meet">

<g transform="translate(0.000000,128.000000) scale(0.100000,-0.100000)"
fill="#000000" stroke="none">
<path d="M500 1264 c-234 -50 -436 -254 -485 -489 -95 -454 306 -855 760 -760
181 38 349 168 433 335 95 191 95 389 0 580 -129 257 -422 396 -708 334z m463
-367 c62 -27 72 -61 72 -262 -1 -276 9 -270 -395 -270 -405 1 -395 -7 -395
280 1 228 12 250 140 266 33 4 168 6 300 5 193 -3 247 -6 278 -19z"/>
<path d="M560 640 l0 -122 23 14 c12 8 57 34 100 58 42 24 77 47 77 50 0 3
-35 26 -77 50 -43 24 -88 50 -100 58 l-23 14 0 -122z"/>
</g>
</svg>
